PathFileType        4      (X/Y/Z)      C:\Users\pc\Desktop\IMUTRC\Sujet_05\Sujet_05_velo_100.trc         
DataRate	CameraRate	NumFrames	NumMarkers	Units	OrigDataRate	OrigDataStartFrame	OrigNumFrames
60.0	60.0	4	64	mm	60.0	121	963
Frame#	Time	pHipOrigin			pRightASI			pLeftASI			pRightCSI			pLeftCSI			pRightIschialTub			pLeftIschialTub			pSacrum			pL5SpinalProcess			pL3SpinalProcess			pT12SpinalProcess			pIJ			pT4SpinalProcess			pT8SpinalProcess			pPX			pC7SpinalProcess			pTopOfHead			pRightAuricularis			pLeftAuricularis			pBackOfHead			pRightAcromion			pLeftAcromion			pRightArmLatEpicondyle			pRightArmMedEpicondyle			pLeftArmLatEpicondyle			pLeftArmMedEpicondyle			pRightUlnarStyloid			pRightRadialStyloid			pRightOlecranon			pLeftUlnarStyloid			pLeftRadialStyloid			pLeftOlecranon			pRightTopOfHand			pRightPinky			pRightBallHand			pLeftTopOfHand			pLeftPinky			pLeftBallHand			pRightGreaterTrochanter			pRightKneeLatEpicondyle			pRightKneeMedEpicondyle			pRightPatella			pLeftGreaterTrochanter			pLeftKneeLatEpicondyle			pLeftKneeMedEpicondyle			pLeftPatella			pRightTibialTub			pRightLatMalleolus			pRightMedMalleolus			pLeftTibialTub			pLeftLatMalleolus			pLeftMedMalleolus			pRightHeelFoot			pRightFirstMetatarsal			pRightFifthMetatarsal			pRightPivotFoot			pRightHeelCenter			pRightToe			pLeftHeelFoot			pLeftFirstMetatarsal			pLeftFifthMetatarsal			pLeftPivotFoot			pLeftHeelCenter			pLeftToe			
		X1	Y1	Z1	X2	Y2	Z2	X3	Y3	Z3	X4	Y4	Z4	X5	Y5	Z5	X6	Y6	Z6	X7	Y7	Z7	X8	Y8	Z8	X9	Y9	Z9	X10	Y10	Z10	X11	Y11	Z11	X12	Y12	Z12	X13	Y13	Z13	X14	Y14	Z14	X15	Y15	Z15	X16	Y16	Z16	X17	Y17	Z17	X18	Y18	Z18	X19	Y19	Z19	X20	Y20	Z20	X21	Y21	Z21	X22	Y22	Z22	X23	Y23	Z23	X24	Y24	Z24	X25	Y25	Z25	X26	Y26	Z26	X27	Y27	Z27	X28	Y28	Z28	X29	Y29	Z29	X30	Y30	Z30	X31	Y31	Z31	X32	Y32	Z32	X33	Y33	Z33	X34	Y34	Z34	X35	Y35	Z35	X36	Y36	Z36	X37	Y37	Z37	X38	Y38	Z38	X39	Y39	Z39	X40	Y40	Z40	X41	Y41	Z41	X42	Y42	Z42	X43	Y43	Z43	X44	Y44	Z44	X45	Y45	Z45	X46	Y46	Z46	X47	Y47	Z47	X48	Y48	Z48	X49	Y49	Z49	X50	Y50	Z50	X51	Y51	Z51	X52	Y52	Z52	X53	Y53	Z53	X54	Y54	Z54	X55	Y55	Z55	X56	Y56	Z56	X57	Y57	Z57	X58	Y58	Z58	X59	Y59	Z59	X60	Y60	Z60	X61	Y61	Z61	X62	Y62	Z62	X63	Y63	Z63	X64	Y64	Z64	
121	2.0	0.0	1249.9765	7.653898598672058E-14	71.81366000000001	1339.72943	121.83989000000008	49.573499999999996	1347.42578	-126.93304999999991	27.616290000000006	1401.97926	106.61697000000008	9.054519999999995	1408.37402	-100.33539999999992	-46.34782	1194.46098	54.61007000000007	-55.57212	1197.68665	-48.83781999999993	-62.4196	1268.59486	6.16839000000008	-28.1256	1369.55276	4.866800000000085	29.14424	1475.49065	3.055900000000088	89.3568	1567.84675	0.7356800000000906	350.46652	1592.06759	-2.6597699999999236	239.2091	1700.04275	-4.13111999999991	163.20773	1648.09244	-2.0938599999999092	249.6218	1516.7453	0.22636000000007758	289.17874	1732.63902	-3.3388499999999115	563.13456	1782.66524	-54.10075999999993	484.86955	1739.09036	38.48171000000008	447.01034	1754.20009	-102.08970999999991	448.36852	1800.37815	-21.27811999999992	287.14147	1667.72943	193.65355000000008	289.17874	1661.90058	-197.04898999999992	364.78398	1414.08968	174.07315000000006	350.01379	1411.26014	118.72740000000006	388.66528	1429.76532	-208.93304999999995	373.89509	1417.42854	-154.94547999999995	462.91234	1195.59279	150.64458000000005	506.20427	1220.26636	152.79503000000005	333.26293	1405.88402	147.58868000000007	494.09385	1216.58796	-234.45547999999994	532.63215	1244.82675	-248.94270999999995	359.29468	1415.05172	-175.71427999999995	547.6287	1130.57002	301.34575	507.05313	1128.75912	225.17460000000003	498.16838	1174.31467	169.43271000000004	613.61351	1179.6342	-381.98757	558.04139	1164.41129	-317.75707	533.42442	1200.85573	-260.0345	12.789510000000009	1212.17388	147.0227700000001	302.13802	995.26153	159.81228000000002	324.8875	1012.6349	95.41201000000004	333.4327	1035.55415	140.57143000000002	-13.581780000000009	1224.34089	-150.2484399999999	255.39406	992.71495	-220.64733999999999	286.80193	1001.65629	-158.22773999999998	291.61214	1028.76326	-201.63284999999996	362.2374	977.60522	136.77984000000004	304.91097	605.23808	126.31056000000002	319.28502	609.4258	68.58799000000003	288.32988	949.14007	-199.65216999999998	13.07245999999999	696.23601	-151.15389999999996	34.067629999999994	691.08625	-95.52518999999995	258.33678	531.83988	88.45134000000002	420.86541	503.60109	66.77709	412.32021	500.43201	144.64596	438.46514	497.82883	106.84334	296.98826	527.31262	92.52588000000002	517.35264	482.66251	114.87922	-65.02277	675.52379	-101.18425999999995	43.51829	559.34298	-52.006899999999966	28.861279999999994	539.87576	-126.53691999999997	50.19599999999999	532.51897	-86.47066999999997	-38.53830000000001	646.77569	-98.86403999999996	100.50517	469.64664	-79.90613999999997	
122	2.017	0.0	1249.9765	7.653898598672058E-14	72.77571000000002	1338.59762	122.12284000000008	47.98895999999999	1349.01032	-126.31055999999991	28.182190000000006	1400.84745	108.08833000000008	7.583159999999994	1409.50583	-98.58108999999992	-45.61215	1193.7253	54.44030000000007	-55.91166	1198.08279	-48.89440999999993	-62.4196	1268.31191	7.017250000000081	-28.46515	1369.38299	6.3381600000000855	28.18219	1475.60383	4.1877200000000885	87.77225	1568.29948	1.0752200000000907	348.65562	1594.33122	-5.376119999999924	236.60593	1701.5141	-6.45134999999991	161.00069	1648.99789	-2.999309999999909	248.4334	1518.32984	-0.6224999999999223	286.40579	1734.50651	-6.451349999999911	559.8523	1785.32501	-59.64664999999993	482.26638	1741.97649	33.67150000000008	443.50171	1756.29395	-106.78674999999991	445.25603	1802.86814	-26.201519999999917	286.29261	1671.06828	191.67287000000007	283.51966	1662.57967	-199.70875999999993	362.74671	1416.18354	174.01656000000006	348.65562	1413.354	118.50103000000006	384.64733	1430.501	-210.17804999999996	370.32987	1418.44717	-155.96410999999995	461.9503	1198.08279	151.04071000000005	505.12904	1222.92613	153.41753000000006	331.56521	1407.8647	147.24913000000006	492.73567	1218.39887	-233.94615999999994	530.99101	1246.97719	-248.43339999999995	355.55969	1415.73081	-176.90268999999995	546.55347	1133.45615	302.08143	506.09108	1131.41888	225.85369000000003	497.20634	1176.91784	170.05521000000005	612.82124	1181.38851	-380.85575	557.13594	1166.27878	-316.73843	532.12283	1202.83641	-259.29882	10.80883000000001	1209.45753	146.1173200000001	281.14285	969.00343	153.53071000000003	305.25051	985.81088	89.46998000000005	315.66321	1006.97582	135.13871000000003	-12.44997000000001	1226.49134	-150.7011699999999	271.74879	1015.12489	-224.94822999999997	302.30779	1024.8585	-162.24567999999996	305.36369	1053.09728	-205.02828999999997	342.43063	952.30915	132.25258000000002	292.97032	578.75361	122.97170000000001	308.24982	582.94132	65.41891000000003	302.2512	971.88955	-203.50033999999997	21.56107999999999	725.55002	-152.85161999999994	42.443059999999996	720.34367	-97.22290999999996	245.77363	506.14768	83.07522000000002	408.0759	475.70185	62.53278	398.62525	471.23118	140.23188	425.10972	468.91096	102.71221	284.31193	500.94133	87.48930000000001	503.71427	452.27328	111.20083	-57.04348000000001	705.00757	-102.88197999999996	50.47895	587.69495	-54.270529999999965	35.70875999999999	568.68045	-128.91372999999996	56.986889999999995	560.98411	-88.90406999999998	-30.785370000000007	676.03311	-100.73153999999995	106.89993	497.37611	-82.62249999999997	
123	2.033	0.0	1249.9765	7.653898598672058E-14	73.90752000000002	1337.74876	122.06625000000008	46.404419999999995	1350.14213	-126.02759999999992	29.031060000000007	1399.99858	108.99379000000009	6.168389999999993	1410.35469	-97.39267999999991	-44.87647	1193.15939	54.49689000000007	-56.3078	1198.30915	-48.72463999999993	-62.36301	1268.14213	7.809520000000081	-28.69151	1369.21322	7.413390000000085	27.44651	1475.66042	4.8102100000000885	86.41408	1568.69561	0.7922700000000907	347.07107	1596.53826	-8.601789999999923	234.22912	1702.87228	-9.33746999999991	159.0766	1649.79016	-4.640439999999908	247.47135	1519.8012	-2.0372699999999218	283.80262	1736.20423	-10.18633999999991	556.73981	1787.64523	-65.75844999999991	479.88957	1744.57967	28.29538000000008	440.16286	1758.16145	-111.93650999999991	442.3699	1805.13177	-31.634229999999917	285.33057	1674.40714	189.1262900000001	277.86059	1663.08898	-203.0476099999999	360.3699	1418.05103	173.95997000000006	347.41062	1415.39127	118.16149000000007	380.40303	1430.78395	-211.93235999999993	366.4817	1419.01308	-157.54864999999995	461.04485	1200.4596	150.92753000000005	504.11041	1225.47271	153.64389000000006	329.8109	1409.73219	146.90959000000007	491.3209	1219.87022	-233.77638999999994	529.29329	1248.7881	-248.26361999999995	351.59833	1415.95718	-178.60040999999995	545.87438	1135.94614	302.02484	505.412	1133.90887	225.85369000000003	496.35748	1179.40784	170.05521000000005	612.08556	1182.85987	-380.06348	556.23049	1167.75014	-316.05934	530.82124	1204.47754	-258.90268	9.054520000000009	1207.92958	145.5514100000001	257.65769	945.00895	148.38095000000004	282.72739	960.45822	84.37681000000005	295.17736	980.09521	130.15873000000002	-11.60110000000001	1228.18906	-150.9841199999999	286.57556	1038.38369	-228.57003999999998	316.45548	1049.19252	-165.69771999999998	317.47411	1078.28017	-208.02759999999998	320.0207	927.97513	127.66873000000004	274.80469	553.85368	119.57626000000002	290.81987	557.92821	62.19324000000002	315.83298	995.88403	-206.72600999999997	33.27535999999999	751.92131	-154.77569999999994	54.213939999999994	746.82814	-99.09039999999996	225.91028	483.28501	77.24637000000001	387.47687	448.65147	57.38302000000001	377.12076	442.25672	134.85576	403.88819	440.27604	97.50586	264.22222	476.83367	81.83023000000001	481.92683	421.03519	106.39061	-44.989650000000005	730.02069	-104.91924999999996	64.17391	613.33056	-58.28846999999997	49.403729999999996	595.27811	-133.21462999999997	70.90821	587.24222	-93.31814999999996	-18.335400000000007	701.38577	-103.22152999999996	121.61352	524.08694	-88.11179999999999	
124	2.05	0.0	1249.9765	7.653898598672058E-14	74.98274000000002	1336.73012	122.17943000000008	45.38577999999999	1351.16077	-125.57487999999991	30.049690000000005	1399.09313	110.01242000000009	5.432709999999994	1411.14696	-96.09108999999991	-44.42374	1192.76325	54.38371000000007	-56.76052	1198.76187	-48.66804999999993	-62.30642	1268.08554	8.488610000000081	-28.63492	1369.10003	8.488610000000085	27.27674	1475.66042	5.545890000000089	85.96135	1568.80879	0.9054500000000908	346.44858	1597.67008	-10.978609999999923	233.0973	1703.49478	-11.318149999999909	158.22774	1650.18629	-5.5458899999999085	247.24499	1520.59347	-2.942719999999922	282.55762	1737.10969	-12.902689999999911	555.15527	1788.72045	-70.51207999999991	478.81434	1746.05103	24.164250000000077	438.29537	1758.89713	-115.89785999999991	440.89854	1806.26358	-35.821949999999916	285.67011	1676.38781	187.3153900000001	274.18219	1662.80603	-205.3112399999999	359.1249	1418.8433	174.18633000000005	346.78812	1416.18354	118.27467000000007	377.5169	1430.33123	-212.95099999999994	364.0483	1418.95649	-158.34091999999995	460.59212	1201.53482	151.38026000000005	503.60109	1226.66111	154.32298000000006	328.90544	1410.46787	146.96618000000007	490.6984	1220.37954	-232.92752999999993	528.44443	1249.58037	-247.47134999999994	348.99516	1415.56104	-179.50585999999996	545.59143	1137.07796	302.53415	505.18563	1134.9841	226.30641000000003	496.01793	1180.53965	170.56452000000004	611.97238	1183.14283	-378.59212	556.00413	1168.14628	-314.70117	530.25534	1205.10004	-257.82746	7.526570000000009	1206.85435	145.1552800000001	235.81366	926.10764	144.13664000000003	261.44927	940.08555	80.01932000000004	275.71014	958.36437	125.85783000000005	-10.46929000000001	1230.33951	-151.3802599999999	299.36507	1061.30294	-231.17321999999996	328.28295	1072.67768	-167.90475999999998	327.66045	1102.61419	-209.66872999999998	299.36507	907.31951	123.87715000000004	253.9227	533.25464	117.02967000000001	270.56038	536.98963	59.87301000000002	328.67908	1019.08624	-208.53691999999998	48.32849999999999	772.57693	-156.86955999999995	69.1539	767.76672	-101.18425999999995	202.70807	465.40233	72.15321000000002	363.02967	424.99654	53.08212000000001	351.48515	416.84747	130.27191	378.64871	414.8102	93.14838	240.73705	457.30986	77.02001000000001	455.66873	392.40027	102.31608	-28.917870000000008	747.84677	-106.89992999999996	84.26363	633.98618	-63.21186999999997	69.71980999999998	616.95237	-138.36438999999996	91.67702	608.8033	-98.80744999999996	-1.3581800000000064	720.06071	-105.99447999999995	144.30641	547.68529	-95.12904999999999	
